<?xml version="1.0" encoding="utf-8"?>
<!-- Generator: Adobe Illustrator 21.0.2, SVG Export Plug-In . SVG Version: 6.00 Build 0)  -->
<svg version="1.1" xmlns="http://www.w3.org/2000/svg" xmlns:xlink="http://www.w3.org/1999/xlink" x="0px" y="0px"
	 viewBox="0 0 1280 340" style="enable-background:new 0 0 1280 340;" xml:space="preserve">
<style type="text/css">
	.st0{display:none;}
</style>
<g id="lines">
	<polygon points="416,80 150,80 125,107.5 149.5,138 411.5,137.5 483,233.5 403.5,334.5 17.5,334.5 90.5,261.5 339.5,261.5 
		363.5,234.5 339,204 89,204.5 17,107.5 91.5,6.5 477.5,6 	"/>
	<polygon points="815.4,79.8 553.6,79.7 529.5,107.8 553.4,137.7 803.9,137.4 875.5,232.8 801.6,334.3 431,334.3 488.6,261.2 
		743.5,261.3 767,234.1 743.6,204.4 491.1,205.4 418.9,109.3 503.9,6.2 872.6,6.2 	"/>
	<polygon points="890.8,247.8 828.9,333.4 957.9,333.4 	"/>
	<polygon points="899.3,7 816.4,117.5 984.3,334 1193.4,334.1 1251.8,260.6 1251.8,135.9 1014.8,135.9 1069,203.3 1163.8,203.4 
		1164,260.9 1022,260.8 914.4,129.4 953.9,77.4 1205.3,77.5 1270.8,7 	"/>
</g>
</svg>
