<svg id="Layer_1" data-name="Layer 1" xmlns="http://www.w3.org/2000/svg" viewBox="0 0 84.24 137.44"><defs><style>.cls-1{fill:#231f20;}.cls-2{fill:#ababab;}.cls-3{fill:#fff;}.cls-4{fill:#eaeaea;}</style></defs><title>SSG_logo</title><path class="cls-1" d="M63.07,29.18,94.9,14.23a5.58,5.58,0,0,1,8,5.05V122a5.58,5.58,0,0,1-2.55,4.69l-36.4,23.53a5.59,5.59,0,0,1-6.31-.17L20.93,123.48A5.58,5.58,0,0,1,18.62,119V19.29a5.58,5.58,0,0,1,8-5.05L58.32,29.17a5.58,5.58,0,0,0,4.75,0" transform="translate(-18.62 -13.69)"/><path class="cls-2" d="M60,126.84,39.77,113.3,39.6,86,60,97.38V84l-32.87-16V116a2.94,2.94,0,0,0,1.25,2.41L60,140.77Z" transform="translate(-18.62 -13.69)"/><path class="cls-3" d="M60,41.08v12l34.33-17v-9.5a1.3,1.3,0,0,0-1.86-1.17Z" transform="translate(-18.62 -13.69)"/><polygon class="cls-3" points="41.34 59.95 65.54 47.29 65.54 57.12 41.34 70.28 41.34 83.68 75.59 64.27 75.59 32.82 41.34 49.25 41.34 59.95"/><path class="cls-2" d="M60,62.94,39.6,53.38V44l20.36,9V41.21L29.42,27.08a1.64,1.64,0,0,0-2.33,1.49V58.22L60,73.64Z" transform="translate(-18.62 -13.69)"/><polygon class="cls-2" points="41.34 70.35 8.47 53.79 8.47 65.44 41.34 83.68 41.34 70.35"/><path class="cls-4" d="M60,105.7l.1,10.55,24.18-14.17v9.83L60,126.84v13.93L92.76,120a3.3,3.3,0,0,0,1.54-2.79V85.82Z" transform="translate(-18.62 -13.69)"/></svg>