<svg id="Layer_1" data-name="Layer 1" xmlns="http://www.w3.org/2000/svg" viewBox="0 0 448.07 512"><defs><style>.cls-1{fill:#f1f1f1;}</style></defs><title>snowflake</title><path class="cls-1" d="M440.1,355.2l-39.2-23,34.1-9.3a16,16,0,0,0,11.1-19.6L442,287.8a15.72,15.72,0,0,0-19.3-11.3L343,298.2,271.2,256l71.9-42.2,79.7,21.7a15.77,15.77,0,0,0,19.3-11.3l4.1-15.5a16.08,16.08,0,0,0-11.1-19.6L401,179.8l39.2-23a16.26,16.26,0,0,0,5.8-21.9L438.1,121a15.59,15.59,0,0,0-21.5-5.9l-39.2,23,9.1-34.7a16.08,16.08,0,0,0-11.1-19.6l-15.2-4.1A15.77,15.77,0,0,0,340.9,91l-21.3,81-71.9,42.2V129.7L306,70.4a16.24,16.24,0,0,0,0-22.6L294.9,36.5a15.57,15.57,0,0,0-22.2,0L247.8,61.9V16A15.86,15.86,0,0,0,232.1,0H216.4a15.86,15.86,0,0,0-15.7,16V62.1L175.8,36.7a15.57,15.57,0,0,0-22.2,0L142.1,48a16.24,16.24,0,0,0,0,22.6l58.3,59.3v84.5l-71.9-42.2-21.3-81A15.72,15.72,0,0,0,87.9,79.9L72.7,84a16,16,0,0,0-11.1,19.6l9.1,34.7-39.2-23A15.61,15.61,0,0,0,10,121.2L2.1,135.1A16.19,16.19,0,0,0,7.9,157l39.2,23L13,189.1A16,16,0,0,0,1.9,208.7L6,224.2a15.72,15.72,0,0,0,19.3,11.3L105,213.8,176.9,256,105,298.2,25.3,276.5A15.77,15.77,0,0,0,6,287.8L1.9,303.3A16.08,16.08,0,0,0,13,322.9l34.1,9.3-39.2,23a16.26,16.26,0,0,0-5.8,21.9L10,391a15.59,15.59,0,0,0,21.5,5.9l39.2-23-9.1,34.7a16.08,16.08,0,0,0,11.1,19.6l15.2,4.1A15.77,15.77,0,0,0,107.2,421l21.3-81,71.9-42.2v84.5l-58.3,59.3a16.24,16.24,0,0,0,0,22.6l11.1,11.3a15.57,15.57,0,0,0,22.2,0l24.9-25.4V496A15.86,15.86,0,0,0,216,512h15.7a15.86,15.86,0,0,0,15.7-16V449.9l24.9,25.4a15.57,15.57,0,0,0,22.2,0L305.6,464a16.24,16.24,0,0,0,0-22.6l-58.3-59.3V297.6l71.9,42.2,21.3,81a15.72,15.72,0,0,0,19.3,11.3L375,428a16,16,0,0,0,11.1-19.6L377,373.7l39.2,23a15.61,15.61,0,0,0,21.5-5.9l7.9-13.9a15.63,15.63,0,0,0-5.5-21.7Z" transform="translate(0)"/></svg>